<?xml version="1.0" encoding="UTF-8" standalone="no"?><!DOCTYPE svg PUBLIC "-//W3C//DTD SVG 1.1//EN" "http://www.w3.org/Graphics/SVG/1.1/DTD/svg11.dtd"><svg width="960px" height="160px" version="1.1" xmlns="http://www.w3.org/2000/svg" xmlns:xlink="http://www.w3.org/1999/xlink" xml:space="preserve" xmlns:serif="http://www.serif.com/" style="fill-rule:evenodd;clip-rule:evenodd;stroke-linejoin:round;stroke-miterlimit:2;"><g transform="matrix(1,0,0,1,-160,-1192)"><g id="Artboard4" transform="matrix(0.864863,0,0,0.522287,20.829046,-21.048707)"><rect x="161" y="2323" width="1110" height="306" style="fill:none;"/><g transform="matrix(1.156253,0,0,1.914655,-1680.841811,-1351.262247)"><path d="M1667,1955L1670,1955C1680,1955 1688,1964 1688,1974L1688,2010C1688,2010 1688,2011 1688,2011C1690,2014 1692,2017 1692,2020C1692,2027 1686,2032 1680,2032C1673,2032 1667,2027 1667,2020C1667,2015 1670,2011 1675,2009L1675,1974C1675,1971 1672,1969 1669,1969L1667,1969L1667,1974C1667,1975 1667,1975 1667,1975C1667,1975 1666,1975 1666,1975L1654,1963L1667,1950C1667,1950 1667,1950 1667,1950C1667,1950 1667,1950 1667,1950L1667,1955ZM1680,2015C1677,2015 1674,2017 1674,2020C1674,2023 1677,2025 1680,2025C1682,2025 1685,2023 1685,2020C1685,2017 1682,2015 1680,2015ZM1633,1973C1630,1971 1629,1968 1629,1964C1629,1957 1634,1952 1641,1952C1647,1952 1653,1957 1653,1964C1653,1969 1650,1973 1646,1975L1646,2010C1646,2013 1649,2015 1652,2015L1653,2015L1653,2009C1653,2009 1653,2009 1654,2009C1654,2009 1654,2009 1654,2009L1666,2021L1654,2034C1654,2034 1653,2034 1653,2034C1653,2034 1653,2033 1653,2033L1653,2028L1651,2028C1641,2028 1633,2020 1633,2010L1633,1974C1633,1974 1633,1973 1633,1973ZM1641,1959C1638,1959 1636,1961 1636,1964C1636,1967 1638,1969 1641,1969C1644,1969 1646,1967 1646,1964C1646,1961 1644,1959 1641,1959ZM1711,2029L1711,2048L1698,2048L1698,1969L1711,1969L1711,1976L1718,1969L1738,1969C1746,1969 1752,1975 1752,1983L1752,2015C1752,2023 1745,2029 1738,2029C1733,2029 1719,2029 1711,2029ZM1711,2014C1717,2015 1725,2015 1736,2015C1737,2015 1738,2014 1738,2013L1738,1986C1738,1984 1737,1983 1736,1983L1711,1983L1711,2014ZM1875,1983L1875,2029L1861,2029L1861,1986C1861,1984 1860,1983 1858,1983L1837,1983L1837,2029L1824,2029L1824,1969L1837,1969L1837,1976L1844,1969L1861,1969C1869,1969 1875,1975 1875,1983ZM1899,2015L1925,2015C1928,2015 1930,2013 1930,2010L1930,2003C1930,2000 1928,1998 1925,1998L1906,1998C1896,1998 1887,1990 1887,1980L1887,1973C1887,1963 1896,1955 1906,1955L1937,1955L1937,1969L1926,1973L1926,1969L1906,1969C1903,1969 1901,1971 1901,1974L1901,1979C1901,1982 1903,1985 1906,1985L1925,1985C1935,1985 1944,1993 1944,2003L1944,2010C1944,2021 1935,2029 1925,2029L1887,2029L1887,2010L1899,2010L1899,2015ZM1991,1969C1999,1969 2005,1975 2005,1983L2005,2015C2005,2023 1999,2029 1991,2029L1964,2029C1957,2029 1951,2023 1951,2015L1951,1983C1951,1975 1957,1969 1964,1969L1991,1969ZM1991,2013L1991,1986C1991,1984 1990,1983 1989,1983L1967,1983C1965,1983 1964,1984 1964,1986L1964,2013C1964,2014 1965,2015 1967,2015L1989,2015C1990,2015 1991,2014 1991,2013ZM2052,1969L2066,1969L2066,2015C2066,2023 2060,2029 2052,2029L2028,2029C2021,2029 2015,2023 2015,2015L2015,1969L2028,1969L2028,2013C2028,2014 2029,2015 2031,2015L2049,2015C2051,2015 2052,2014 2052,2013L2052,1969ZM2108,1969L2104,1983L2092,1983C2090,1983 2089,1984 2089,1986L2089,2029L2075,2029L2075,1969L2089,1969L2089,1976L2096,1969L2108,1969ZM2143,1983L2128,1983C2126,1983 2125,1984 2125,1986L2125,2013C2125,2014 2126,2015 2128,2015L2157,2015L2157,2029L2125,2029C2118,2029 2112,2023 2112,2015L2112,1983C2112,1975 2118,1969 2125,1969L2155,1969L2155,1987L2143,1987L2143,1983ZM2176,2006L2176,2013C2176,2014 2178,2015 2179,2015L2216,2015L2212,2029L2176,2029C2169,2029 2163,2023 2163,2015L2163,1983C2163,1975 2169,1969 2176,1969L2202,1969C2210,1969 2216,1975 2216,1983L2216,2006L2176,2006ZM2176,1992L2202,1992L2202,1986C2202,1984 2201,1983 2200,1983L2179,1983C2178,1983 2176,1984 2176,1986L2176,1992ZM1774,2006L1774,2013C1774,2014 1775,2015 1777,2015L1814,2015L1810,2029L1774,2029C1767,2029 1761,2023 1761,2015L1761,1983C1761,1975 1767,1969 1774,1969L1800,1969C1808,1969 1814,1975 1814,1983L1814,2006L1774,2006ZM1774,1992L1800,1992L1800,1986C1800,1984 1799,1983 1798,1983L1777,1983C1775,1983 1774,1984 1774,1986L1774,1992ZM2230,2029L2230,1954L2243,1954L2243,2010C2243,2016 2242,2015 2248,2015L2269,2015L2269,2029L2248,2029L2248,2029L2248,2029L2230,2029ZM2314,1969C2321,1969 2327,1975 2327,1983L2327,2015C2327,2023 2321,2029 2314,2029L2287,2029C2279,2029 2273,2023 2273,2015L2273,1983C2273,1975 2279,1969 2287,1969L2314,1969ZM2314,2013L2314,1986C2314,1984 2313,1983 2311,1983L2290,1983C2288,1983 2287,1984 2287,1986L2287,2013C2287,2014 2288,2015 2290,2015L2311,2015C2313,2015 2314,2014 2314,2013ZM2351,1972L2378,1972C2385,1972 2391,1978 2391,1986L2391,2015C2391,2023 2385,2029 2378,2029L2357,2029L2351,2022L2351,2029L2337,2029L2337,1952L2351,1952L2351,1972ZM2353,1986C2352,1986 2351,1987 2351,1988L2351,2012C2351,2012 2357,2015 2375,2015C2376,2015 2378,2014 2378,2013L2378,1989C2378,1987 2377,1986 2375,1986L2353,1986ZM2414,1972L2442,1972C2449,1972 2455,1978 2455,1986L2455,2015C2455,2023 2449,2029 2442,2029L2421,2029L2414,2022L2414,2029L2401,2029L2401,1952L2414,1952L2414,1972ZM2417,1986C2416,1986 2416,1986 2415,1987C2415,1987 2414,1988 2414,1988L2414,2012C2414,2012 2422,2015 2439,2015C2440,2015 2442,2014 2442,2013L2442,1989C2442,1987 2440,1986 2439,1986L2417,1986ZM2491,2052L2442,2052L2449,2038L2482,2038L2485,2029L2479,2029L2461,1969L2475,1969L2489,2016L2503,1969L2517,1969L2491,2052L2491,2052Z" style="fill:rgb(26,26,26);"/></g></g></g></svg>